<svg width="740" height="268" viewBox="0 0 740 268" fill="none" xmlns="http://www.w3.org/2000/svg">
<path d="M313.955 166.771C313.955 160.912 314.346 155.102 315.127 149.34C315.908 143.578 316.592 137.816 317.178 132.055C317.178 131.762 317.227 131.127 317.324 130.15C317.422 129.076 317.52 127.953 317.617 126.781C317.812 125.609 317.959 124.535 318.057 123.559C318.252 122.484 318.35 121.801 318.35 121.508V120.922L324.502 75.2188C324.307 73.2656 324.6 71.5566 325.381 70.0918C326.26 68.5293 327.822 67.748 330.068 67.748C332.51 67.4551 334.512 67.7969 336.074 68.7734C337.734 69.6523 339.102 70.8242 340.176 72.2891C341.25 73.7539 342.129 75.3652 342.812 77.123C343.496 78.8809 344.229 80.4922 345.01 81.957C345.498 83.3242 346.084 84.9355 346.768 86.791C347.549 88.6465 348.428 90.9902 349.404 93.8223C350.479 96.6543 351.699 100.121 353.066 104.223C354.531 108.324 356.191 113.305 358.047 119.164L358.633 119.75C359.316 119.359 360.586 118.725 362.441 117.846C364.395 116.967 366.396 116.039 368.447 115.062C370.596 114.086 372.598 113.158 374.453 112.279C376.309 111.4 377.627 110.814 378.408 110.521C378.506 110.326 378.75 110.18 379.141 110.082C379.629 109.887 379.971 109.74 380.166 109.643H380.459C381.436 109.643 382.168 110.033 382.656 110.814C383.145 111.498 383.389 112.182 383.389 112.865C383.389 113.939 383.145 114.867 382.656 115.648C382.168 116.43 381.582 117.162 380.898 117.846C380.312 118.432 379.629 119.018 378.848 119.604C378.164 120.189 377.627 120.824 377.236 121.508L362.734 128.832C362.344 129.32 362.148 129.711 362.148 130.004C362.148 130.785 362.539 132.006 363.32 133.666C364.199 135.326 364.883 136.645 365.371 137.621C365.664 138.207 366.152 139.281 366.836 140.844C367.52 142.406 368.252 144.018 369.033 145.678C369.814 147.338 370.547 148.949 371.23 150.512C372.012 151.977 372.549 153.002 372.842 153.588V154.027C372.842 157.543 371.084 159.301 367.568 159.301C366.494 159.301 365.371 159.203 364.199 159.008C363.027 158.715 362.148 157.982 361.562 156.811L351.748 135.863H350.43C346.719 138.695 342.764 141.479 338.564 144.213C334.365 146.947 330.068 149.291 325.674 151.244C324.99 154.76 324.551 158.324 324.355 161.938C324.258 165.551 324.307 169.164 324.502 172.777C323.721 173.852 322.939 174.682 322.158 175.268C321.377 175.756 320.303 176 318.936 176C317.568 176 316.543 175.707 315.859 175.121C315.176 174.438 314.688 173.656 314.395 172.777C314.102 171.801 313.955 170.775 313.955 169.701C313.955 168.627 313.955 167.65 313.955 166.771ZM326.992 138.354C329.922 137.182 332.754 135.619 335.488 133.666C338.32 131.713 341.006 129.906 343.545 128.246C343.838 128.051 344.18 127.855 344.57 127.66C345.059 127.465 345.498 127.221 345.889 126.928C346.279 126.635 346.768 126.293 347.354 125.902V124.73L333.877 86.3516L333.291 85.7656C332.998 86.3516 332.607 88.0117 332.119 90.7461C331.729 93.4805 331.24 97.0449 330.654 101.439C330.166 105.736 329.58 110.717 328.896 116.381C328.311 122.045 327.676 128.1 326.992 134.545V138.354ZM389.395 165.746C389.395 161.645 389.492 157.641 389.688 153.734C389.883 149.828 389.98 145.824 389.98 141.723C389.688 130.59 389.59 119.701 389.688 109.057C389.785 98.3145 389.297 87.3281 388.223 76.0977C388.223 74.2422 388.662 73.0215 389.541 72.4355C390.42 71.752 391.738 71.4102 393.496 71.4102C395.742 71.4102 397.646 72.0938 399.209 73.4609C400.869 74.7305 401.748 76.5371 401.846 78.8809C401.65 92.748 401.797 106.518 402.285 120.189C402.871 133.764 403.164 147.533 403.164 161.498V172.777C402.578 173.559 401.748 174.34 400.674 175.121C399.6 175.902 398.525 176.195 397.451 176C394.619 175.512 392.568 174.389 391.299 172.631C390.029 170.775 389.395 168.48 389.395 165.746ZM425.869 155.053L409.756 115.941C409.658 115.844 409.609 115.746 409.609 115.648V115.062C409.609 114.184 409.854 113.451 410.342 112.865C410.928 112.182 411.611 111.596 412.393 111.107C412.588 111.107 412.979 111.107 413.564 111.107C414.15 111.01 414.541 110.961 414.736 110.961C416.592 110.961 417.91 111.254 418.691 111.84C419.57 112.426 420.693 113.207 422.061 114.184C422.451 115.648 422.939 117.162 423.525 118.725C424.209 120.287 424.99 122.289 425.869 124.73C426.846 127.074 428.066 130.053 429.531 133.666C430.996 137.279 432.852 141.869 435.098 147.436L435.83 148.168C436.123 147.68 436.367 147.045 436.562 146.264C436.855 145.482 437.295 144.115 437.881 142.162C438.564 140.209 439.492 137.377 440.664 133.666C441.836 129.955 443.496 124.926 445.645 118.578C446.426 117.309 446.963 115.844 447.256 114.184C447.549 112.523 447.891 110.961 448.281 109.496C448.672 108.031 449.258 106.811 450.039 105.834C450.918 104.857 452.236 104.369 453.994 104.369C455.654 104.369 457.266 105.053 458.828 106.42C460.391 107.689 461.172 109.252 461.172 111.107C461.172 111.986 460.879 112.963 460.293 114.037C459.707 115.014 459.121 115.844 458.535 116.527L440.664 176H439.785C439.395 176 438.809 175.951 438.027 175.854C437.344 175.756 436.611 175.609 435.83 175.414C435.049 175.121 434.365 174.828 433.779 174.535C433.193 174.242 432.852 173.9 432.754 173.51L425.869 155.639V155.053ZM501.602 135.131C500.723 136.693 499.697 138.598 498.525 140.844C497.451 142.992 496.279 145.336 495.01 147.875C493.74 150.316 492.324 152.807 490.762 155.346C489.297 157.787 487.734 160.033 486.074 162.084C484.512 164.135 482.852 165.893 481.094 167.357C479.336 168.725 477.529 169.555 475.674 169.848C474.893 169.848 474.014 169.799 473.037 169.701C472.061 169.506 471.084 169.262 470.107 168.969C469.131 168.578 468.301 168.09 467.617 167.504C467.031 166.82 466.738 165.941 466.738 164.867C466.836 154.906 467.568 145.873 468.936 137.768C470.303 129.564 472.451 122.387 475.381 116.234C478.311 109.984 482.07 104.809 486.66 100.707C491.25 96.6055 496.816 93.6758 503.359 91.918C503.555 91.918 503.896 91.918 504.385 91.918C504.971 91.8203 505.361 91.7715 505.557 91.7715C508.486 91.6738 510.586 93.041 511.855 95.873C513.223 98.6074 514.199 103.002 514.785 109.057C515.469 115.014 515.908 122.729 516.104 132.201C516.396 141.576 516.934 152.855 517.715 166.039C518.008 167.113 518.154 168.041 518.154 168.822C518.252 169.604 518.301 170.531 518.301 171.605C518.301 173.07 517.861 174.193 516.982 174.975C516.104 175.658 514.98 176 513.613 176C510.781 176 508.779 175.219 507.607 173.656C506.436 172.094 505.654 169.994 505.264 167.357C505.264 167.26 505.166 166.479 504.971 165.014C504.873 163.549 504.678 161.889 504.385 160.033C504.189 158.08 503.994 156.127 503.799 154.174C503.604 152.221 503.457 150.609 503.359 149.34V148.754C503.164 147.777 503.018 146.557 502.92 145.092C502.92 143.627 502.822 142.211 502.627 140.844C502.432 139.184 502.285 137.523 502.188 135.863L501.602 135.131ZM498.379 106.127C495.742 108.08 493.154 110.717 490.615 114.037C488.076 117.357 486.27 120.58 485.195 123.705C484.707 125.17 484.17 127.172 483.584 129.711C482.998 132.25 482.461 134.789 481.973 137.328C481.582 139.77 481.24 142.064 480.947 144.213C480.654 146.264 480.508 147.582 480.508 148.168C480.605 148.168 480.703 148.07 480.801 147.875C480.996 147.68 481.143 147.533 481.24 147.436C487.295 141.576 491.543 135.277 493.984 128.539C496.523 121.703 497.988 114.232 498.379 106.127ZM532.51 169.701C532.314 166.186 531.973 161.498 531.484 155.639C531.094 149.682 530.605 143.529 530.02 137.182C529.531 130.834 528.994 124.828 528.408 119.164C527.822 113.5 527.334 109.105 526.943 105.98C526.943 104.711 527.529 103.881 528.701 103.49C529.873 103.1 530.996 102.904 532.07 102.904C533.438 102.904 534.854 103.295 536.318 104.076C537.881 104.857 538.857 105.932 539.248 107.299C539.248 107.689 539.297 108.422 539.395 109.496C539.492 110.473 539.541 111.498 539.541 112.572C539.639 113.646 539.736 114.721 539.834 115.795C539.932 116.771 539.98 117.455 539.98 117.846C539.98 118.432 539.98 118.871 539.98 119.164C539.98 119.457 539.98 119.75 539.98 120.043C539.98 120.238 540.029 120.482 540.127 120.775C540.225 121.068 540.371 121.557 540.566 122.24C540.762 122.045 540.957 121.801 541.152 121.508C541.445 121.215 541.641 121.02 541.738 120.922C543.301 118.676 544.814 116.723 546.279 115.062C547.744 113.305 549.258 111.693 550.82 110.229C552.383 108.666 554.092 107.055 555.947 105.395C557.9 103.637 560.146 101.635 562.686 99.3887C563.271 98.9004 563.711 98.5586 564.004 98.3633C564.297 98.0703 564.541 97.875 564.736 97.7773C565.029 97.582 565.322 97.4844 565.615 97.4844C565.908 97.3867 566.299 97.3379 566.787 97.3379C568.447 97.3379 570.107 97.9238 571.768 99.0957C573.525 100.17 574.404 101.684 574.404 103.637C574.404 104.32 574.16 105.053 573.672 105.834C573.184 106.518 572.598 107.201 571.914 107.885C571.23 108.471 570.498 109.008 569.717 109.496C569.033 109.984 568.398 110.326 567.812 110.521C565.273 112.768 562.588 115.355 559.756 118.285C556.924 121.117 554.287 124.193 551.846 127.514C549.404 130.834 547.402 134.301 545.84 137.914C544.277 141.527 543.496 145.141 543.496 148.754C543.496 152.074 543.74 155.346 544.229 158.568C544.717 161.791 544.961 165.062 544.961 168.383V173.51C544.18 174.291 543.496 174.926 542.91 175.414C542.324 175.902 541.494 176.146 540.42 176.146C538.76 176.146 537.148 175.463 535.586 174.096C534.023 172.631 532.998 171.166 532.51 169.701ZM578.652 153.588L584.072 115.941C584.268 114.672 584.805 113.744 585.684 113.158C586.66 112.572 587.734 112.279 588.906 112.279C591.055 112.279 592.764 112.914 594.033 114.184C595.303 115.355 596.377 116.82 597.256 118.578H597.402C598.574 118.578 599.6 118.383 600.479 117.992C601.455 117.504 602.627 117.26 603.994 117.26C607.119 117.26 609.756 118.236 611.904 120.189C614.15 122.143 615.957 124.535 617.324 127.367C618.691 130.102 619.668 133.08 620.254 136.303C620.938 139.525 621.279 142.357 621.279 144.799C621.279 147.729 620.498 151 618.936 154.613C617.471 158.227 615.469 161.645 612.93 164.867C610.488 168.09 607.705 170.775 604.58 172.924C601.455 175.072 598.281 176.146 595.059 176.146C592.129 176.146 589.59 175.463 587.441 174.096C585.391 172.729 583.682 171.02 582.314 168.969C581.045 166.82 580.117 164.428 579.531 161.791C578.945 159.154 578.652 156.566 578.652 154.027V153.588ZM590.957 154.467C591.152 155.443 591.348 156.566 591.543 157.836C591.738 159.105 592.031 160.277 592.422 161.352C592.812 162.328 593.35 163.109 594.033 163.695C594.814 164.184 595.889 164.184 597.256 163.695C598.525 162.523 599.893 161.205 601.357 159.74C602.822 158.275 604.189 156.713 605.459 155.053C606.826 153.393 607.949 151.635 608.828 149.779C609.707 147.924 610.146 145.971 610.146 143.92C610.537 140.6 610.293 137.572 609.414 134.838C608.535 132.006 607.266 130.004 605.605 128.832C604.043 127.562 602.236 127.416 600.186 128.393C598.135 129.271 596.084 131.762 594.033 135.863C592.861 138.402 592.031 141.381 591.543 144.799C591.152 148.119 590.957 151.195 590.957 154.027V154.467ZM664.492 152.855C664.395 152.855 663.711 153.93 662.441 156.078C661.27 158.227 659.658 160.57 657.607 163.109C655.557 165.648 653.115 167.992 650.283 170.141C647.549 172.289 644.619 173.363 641.494 173.363C637.197 173.363 633.584 172.045 630.654 169.408C627.822 166.771 626.406 163.158 626.406 158.568C626.211 156.225 626.504 153.441 627.285 150.219C628.164 146.996 629.385 143.676 630.947 140.258C632.607 136.742 634.561 133.373 636.807 130.15C639.15 126.83 641.641 123.998 644.277 121.654C646.914 119.213 649.648 117.406 652.48 116.234C655.41 115.062 658.34 114.867 661.27 115.648V113.598C661.27 111.059 661.172 108.471 660.977 105.834C660.879 103.1 660.732 100.023 660.537 96.6055C660.439 93.0898 660.293 89.0859 660.098 84.5938C660 80.0039 659.951 74.5352 659.951 68.1875C660.244 67.1133 660.732 66.4297 661.416 66.1367C662.197 65.7461 663.027 65.5508 663.906 65.5508C666.152 65.5508 667.91 66.2832 669.18 67.748C670.547 69.2129 671.377 71.0195 671.67 73.168C671.475 76.4883 671.377 79.9062 671.377 83.4219C671.475 86.8398 671.67 90.7461 671.963 95.1406C672.256 99.5352 672.695 104.516 673.281 110.082C673.965 115.648 674.795 122.24 675.771 129.857C676.748 137.377 677.92 146.068 679.287 155.932C680.654 165.697 682.266 177.025 684.121 189.916V194.896C684.121 195.482 683.877 195.922 683.389 196.215C682.998 196.508 682.461 196.703 681.777 196.801C681.191 196.996 680.557 197.094 679.873 197.094C679.287 197.191 678.848 197.24 678.555 197.24C677.09 197.24 675.527 196.801 673.867 195.922C672.207 195.141 671.23 194.018 670.938 192.553L665.518 153.441C665.518 153.148 665.371 153.002 665.078 153.002C664.883 152.904 664.688 152.855 664.492 152.855ZM638.711 156.078C638.711 156.371 638.662 156.908 638.564 157.689C638.564 158.373 638.564 159.105 638.564 159.887C638.662 160.668 638.809 161.352 639.004 161.938C639.199 162.523 639.59 162.816 640.176 162.816C642.617 162.914 645.107 161.986 647.646 160.033C650.283 158.08 652.676 155.688 654.824 152.855C656.973 149.926 658.73 146.801 660.098 143.48C661.562 140.16 662.344 137.182 662.441 134.545C662.637 131.908 662.002 129.906 660.537 128.539C659.17 127.074 656.777 126.732 653.359 127.514C649.16 131.225 645.645 135.473 642.812 140.258C640.078 145.043 638.711 150.316 638.711 156.078Z" fill="#383D54"/>
<g clip-path="url(#clip0_108_5)">
<rect width="268" height="268" rx="134" fill="#F59842"/>
<path d="M85.6031 214.032C85.6031 203.563 86.301 193.181 87.6968 182.887C89.0927 172.593 90.314 162.299 91.3609 152.004C91.3609 151.481 91.4481 150.347 91.6226 148.602C91.7971 146.683 91.9716 144.676 92.146 142.583C92.495 140.489 92.7567 138.569 92.9312 136.825C93.2802 134.905 93.4546 133.684 93.4546 133.161V132.114L104.447 50.4575C104.098 46.9679 104.621 43.9145 106.017 41.2974C107.587 38.5057 110.379 37.1099 114.392 37.1099C118.754 36.5864 122.331 37.1971 125.123 38.9419C128.089 40.5122 130.531 42.6059 132.451 45.2231C134.37 47.8403 135.94 50.7192 137.162 53.8599C138.383 57.0005 139.692 59.8794 141.087 62.4966C141.96 64.9393 143.007 67.8182 144.228 71.1333C145.624 74.4484 147.194 78.6359 148.939 83.6958C150.858 88.7557 153.039 94.9497 155.482 102.278C158.099 109.606 161.065 118.504 164.38 128.973L165.427 130.02C166.649 129.322 168.917 128.188 172.232 126.618C175.722 125.047 179.298 123.39 182.962 121.645C186.801 119.9 190.378 118.243 193.693 116.672C197.008 115.102 199.363 114.055 200.759 113.532C200.934 113.183 201.37 112.921 202.068 112.747C202.94 112.398 203.551 112.136 203.9 111.961H204.423C206.168 111.961 207.477 112.659 208.349 114.055C209.222 115.277 209.658 116.498 209.658 117.719C209.658 119.639 209.222 121.296 208.349 122.692C207.477 124.088 206.43 125.396 205.209 126.618C204.162 127.665 202.94 128.711 201.544 129.758C200.323 130.805 199.363 131.939 198.666 133.161L172.755 146.247C172.058 147.119 171.709 147.817 171.709 148.34C171.709 149.736 172.406 151.917 173.802 154.883C175.373 157.849 176.594 160.205 177.466 161.95C177.99 162.997 178.862 164.916 180.084 167.708C181.305 170.499 182.613 173.378 184.009 176.344C185.405 179.31 186.714 182.189 187.935 184.981C189.331 187.598 190.291 189.43 190.814 190.477V191.262C190.814 197.543 187.673 200.684 181.392 200.684C179.473 200.684 177.466 200.51 175.373 200.161C173.279 199.637 171.709 198.329 170.662 196.235L153.127 158.809H150.771C144.141 163.869 137.074 168.842 129.572 173.727C122.069 178.612 114.392 182.8 106.541 186.29C105.319 192.571 104.534 198.939 104.185 205.395C104.011 211.851 104.098 218.306 104.447 224.762C103.051 226.681 101.655 228.165 100.259 229.211C98.8635 230.084 96.9442 230.52 94.5015 230.52C92.0588 230.52 90.2268 229.997 89.0054 228.95C87.7841 227.728 86.9117 226.333 86.3882 224.762C85.8648 223.017 85.6031 221.185 85.6031 219.266C85.6031 217.347 85.6031 215.602 85.6031 214.032ZM108.896 163.258C114.13 161.165 119.19 158.373 124.076 154.883C129.136 151.394 133.934 148.166 138.47 145.2C138.994 144.851 139.604 144.502 140.302 144.153C141.175 143.804 141.96 143.368 142.658 142.844C143.356 142.321 144.228 141.71 145.275 141.012V138.918L121.197 70.3481L120.15 69.3013C119.627 70.3481 118.929 73.3143 118.056 78.1997C117.358 83.0851 116.486 89.4536 115.439 97.3052C114.567 104.982 113.52 113.881 112.298 124C111.252 134.12 110.117 144.938 108.896 156.454V163.258Z" fill="#484041"/>
<path d="M85.6031 214.032C85.6031 203.563 86.301 193.181 87.6968 182.887C89.0927 172.593 90.314 162.299 91.3609 152.004C91.3609 151.481 91.4481 150.347 91.6226 148.602C91.7971 146.683 91.9716 144.676 92.146 142.583C92.495 140.489 92.7567 138.569 92.9312 136.825C93.2802 134.905 93.4546 133.684 93.4546 133.161V132.114L104.447 50.4575C104.098 46.9679 104.621 43.9145 106.017 41.2974C107.587 38.5057 110.379 37.1099 114.392 37.1099C118.754 36.5864 122.331 37.1971 125.123 38.9419C128.089 40.5122 130.531 42.6059 132.451 45.2231C134.37 47.8403 135.94 50.7192 137.162 53.8599C138.383 57.0005 139.692 59.8794 141.087 62.4966C141.96 64.9393 143.007 67.8182 144.228 71.1333C145.624 74.4484 147.194 78.6359 148.939 83.6958C150.858 88.7557 153.039 94.9497 155.482 102.278C158.099 109.606 161.065 118.504 164.38 128.973L165.427 130.02C166.649 129.322 168.917 128.188 172.232 126.618C175.722 125.047 179.298 123.39 182.962 121.645C186.801 119.9 190.378 118.243 193.693 116.672C197.008 115.102 199.363 114.055 200.759 113.532C200.934 113.183 201.37 112.921 202.068 112.747C202.94 112.398 203.551 112.136 203.9 111.961H204.423C206.168 111.961 207.477 112.659 208.349 114.055C209.222 115.277 209.658 116.498 209.658 117.719C209.658 119.639 209.222 121.296 208.349 122.692C207.477 124.088 206.43 125.396 205.209 126.618C204.162 127.665 202.94 128.711 201.544 129.758C200.323 130.805 199.363 131.939 198.666 133.161L172.755 146.247C172.058 147.119 171.709 147.817 171.709 148.34C171.709 149.736 172.406 151.917 173.802 154.883C175.373 157.849 176.594 160.205 177.466 161.95C177.99 162.997 178.862 164.916 180.084 167.708C181.305 170.499 182.613 173.378 184.009 176.344C185.405 179.31 186.714 182.189 187.935 184.981C189.331 187.598 190.291 189.43 190.814 190.477V191.262C190.814 197.543 187.673 200.684 181.392 200.684C179.473 200.684 177.466 200.51 175.373 200.161C173.279 199.637 171.709 198.329 170.662 196.235L153.127 158.809H150.771C144.141 163.869 137.074 168.842 129.572 173.727C122.069 178.612 114.392 182.8 106.541 186.29C105.319 192.571 104.534 198.939 104.185 205.395C104.011 211.851 104.098 218.306 104.447 224.762C103.051 226.681 101.655 228.165 100.259 229.211C98.8635 230.084 96.9442 230.52 94.5015 230.52C92.0588 230.52 90.2268 229.997 89.0054 228.95C87.7841 227.728 86.9117 226.333 86.3882 224.762C85.8648 223.017 85.6031 221.185 85.6031 219.266C85.6031 217.347 85.6031 215.602 85.6031 214.032ZM108.896 163.258C114.13 161.165 119.19 158.373 124.076 154.883C129.136 151.394 133.934 148.166 138.47 145.2C138.994 144.851 139.604 144.502 140.302 144.153C141.175 143.804 141.96 143.368 142.658 142.844C143.356 142.321 144.228 141.71 145.275 141.012V138.918L121.197 70.3481L120.15 69.3013C119.627 70.3481 118.929 73.3143 118.056 78.1997C117.358 83.0851 116.486 89.4536 115.439 97.3052C114.567 104.982 113.52 113.881 112.298 124C111.252 134.12 110.117 144.938 108.896 156.454V163.258Z" fill="#383D54"/>
</g>
<defs>
<clipPath id="clip0_108_5">
<rect width="268" height="268" rx="134" fill="white"/>
</clipPath>
</defs>
</svg>
