<svg width="740" height="268" viewBox="0 0 740 268" fill="none" xmlns="http://www.w3.org/2000/svg">
<path d="M302.955 166.771C302.955 160.912 303.346 155.102 304.127 149.34C304.908 143.578 305.592 137.816 306.178 132.055C306.178 131.762 306.227 131.127 306.324 130.15C306.422 129.076 306.52 127.953 306.617 126.781C306.812 125.609 306.959 124.535 307.057 123.559C307.252 122.484 307.35 121.801 307.35 121.508V120.922L313.502 75.2188C313.307 73.2656 313.6 71.5566 314.381 70.0918C315.26 68.5293 316.822 67.748 319.068 67.748C321.51 67.4551 323.512 67.7969 325.074 68.7734C326.734 69.6523 328.102 70.8242 329.176 72.2891C330.25 73.7539 331.129 75.3652 331.812 77.123C332.496 78.8809 333.229 80.4922 334.01 81.957C334.498 83.3242 335.084 84.9355 335.768 86.791C336.549 88.6465 337.428 90.9902 338.404 93.8223C339.479 96.6543 340.699 100.121 342.066 104.223C343.531 108.324 345.191 113.305 347.047 119.164L347.633 119.75C348.316 119.359 349.586 118.725 351.441 117.846C353.395 116.967 355.396 116.039 357.447 115.062C359.596 114.086 361.598 113.158 363.453 112.279C365.309 111.4 366.627 110.814 367.408 110.521C367.506 110.326 367.75 110.18 368.141 110.082C368.629 109.887 368.971 109.74 369.166 109.643H369.459C370.436 109.643 371.168 110.033 371.656 110.814C372.145 111.498 372.389 112.182 372.389 112.865C372.389 113.939 372.145 114.867 371.656 115.648C371.168 116.43 370.582 117.162 369.898 117.846C369.312 118.432 368.629 119.018 367.848 119.604C367.164 120.189 366.627 120.824 366.236 121.508L351.734 128.832C351.344 129.32 351.148 129.711 351.148 130.004C351.148 130.785 351.539 132.006 352.32 133.666C353.199 135.326 353.883 136.645 354.371 137.621C354.664 138.207 355.152 139.281 355.836 140.844C356.52 142.406 357.252 144.018 358.033 145.678C358.814 147.338 359.547 148.949 360.23 150.512C361.012 151.977 361.549 153.002 361.842 153.588V154.027C361.842 157.543 360.084 159.301 356.568 159.301C355.494 159.301 354.371 159.203 353.199 159.008C352.027 158.715 351.148 157.982 350.562 156.811L340.748 135.863H339.43C335.719 138.695 331.764 141.479 327.564 144.213C323.365 146.947 319.068 149.291 314.674 151.244C313.99 154.76 313.551 158.324 313.355 161.938C313.258 165.551 313.307 169.164 313.502 172.777C312.721 173.852 311.939 174.682 311.158 175.268C310.377 175.756 309.303 176 307.936 176C306.568 176 305.543 175.707 304.859 175.121C304.176 174.438 303.688 173.656 303.395 172.777C303.102 171.801 302.955 170.775 302.955 169.701C302.955 168.627 302.955 167.65 302.955 166.771ZM315.992 138.354C318.922 137.182 321.754 135.619 324.488 133.666C327.32 131.713 330.006 129.906 332.545 128.246C332.838 128.051 333.18 127.855 333.57 127.66C334.059 127.465 334.498 127.221 334.889 126.928C335.279 126.635 335.768 126.293 336.354 125.902V124.73L322.877 86.3516L322.291 85.7656C321.998 86.3516 321.607 88.0117 321.119 90.7461C320.729 93.4805 320.24 97.0449 319.654 101.439C319.166 105.736 318.58 110.717 317.896 116.381C317.311 122.045 316.676 128.1 315.992 134.545V138.354ZM378.395 165.746C378.395 161.645 378.492 157.641 378.688 153.734C378.883 149.828 378.98 145.824 378.98 141.723C378.688 130.59 378.59 119.701 378.688 109.057C378.785 98.3145 378.297 87.3281 377.223 76.0977C377.223 74.2422 377.662 73.0215 378.541 72.4355C379.42 71.752 380.738 71.4102 382.496 71.4102C384.742 71.4102 386.646 72.0938 388.209 73.4609C389.869 74.7305 390.748 76.5371 390.846 78.8809C390.65 92.748 390.797 106.518 391.285 120.189C391.871 133.764 392.164 147.533 392.164 161.498V172.777C391.578 173.559 390.748 174.34 389.674 175.121C388.6 175.902 387.525 176.195 386.451 176C383.619 175.512 381.568 174.389 380.299 172.631C379.029 170.775 378.395 168.48 378.395 165.746ZM414.869 155.053L398.756 115.941C398.658 115.844 398.609 115.746 398.609 115.648V115.062C398.609 114.184 398.854 113.451 399.342 112.865C399.928 112.182 400.611 111.596 401.393 111.107C401.588 111.107 401.979 111.107 402.564 111.107C403.15 111.01 403.541 110.961 403.736 110.961C405.592 110.961 406.91 111.254 407.691 111.84C408.57 112.426 409.693 113.207 411.061 114.184C411.451 115.648 411.939 117.162 412.525 118.725C413.209 120.287 413.99 122.289 414.869 124.73C415.846 127.074 417.066 130.053 418.531 133.666C419.996 137.279 421.852 141.869 424.098 147.436L424.83 148.168C425.123 147.68 425.367 147.045 425.562 146.264C425.855 145.482 426.295 144.115 426.881 142.162C427.564 140.209 428.492 137.377 429.664 133.666C430.836 129.955 432.496 124.926 434.645 118.578C435.426 117.309 435.963 115.844 436.256 114.184C436.549 112.523 436.891 110.961 437.281 109.496C437.672 108.031 438.258 106.811 439.039 105.834C439.918 104.857 441.236 104.369 442.994 104.369C444.654 104.369 446.266 105.053 447.828 106.42C449.391 107.689 450.172 109.252 450.172 111.107C450.172 111.986 449.879 112.963 449.293 114.037C448.707 115.014 448.121 115.844 447.535 116.527L429.664 176H428.785C428.395 176 427.809 175.951 427.027 175.854C426.344 175.756 425.611 175.609 424.83 175.414C424.049 175.121 423.365 174.828 422.779 174.535C422.193 174.242 421.852 173.9 421.754 173.51L414.869 155.639V155.053ZM490.602 135.131C489.723 136.693 488.697 138.598 487.525 140.844C486.451 142.992 485.279 145.336 484.01 147.875C482.74 150.316 481.324 152.807 479.762 155.346C478.297 157.787 476.734 160.033 475.074 162.084C473.512 164.135 471.852 165.893 470.094 167.357C468.336 168.725 466.529 169.555 464.674 169.848C463.893 169.848 463.014 169.799 462.037 169.701C461.061 169.506 460.084 169.262 459.107 168.969C458.131 168.578 457.301 168.09 456.617 167.504C456.031 166.82 455.738 165.941 455.738 164.867C455.836 154.906 456.568 145.873 457.936 137.768C459.303 129.564 461.451 122.387 464.381 116.234C467.311 109.984 471.07 104.809 475.66 100.707C480.25 96.6055 485.816 93.6758 492.359 91.918C492.555 91.918 492.896 91.918 493.385 91.918C493.971 91.8203 494.361 91.7715 494.557 91.7715C497.486 91.6738 499.586 93.041 500.855 95.873C502.223 98.6074 503.199 103.002 503.785 109.057C504.469 115.014 504.908 122.729 505.104 132.201C505.396 141.576 505.934 152.855 506.715 166.039C507.008 167.113 507.154 168.041 507.154 168.822C507.252 169.604 507.301 170.531 507.301 171.605C507.301 173.07 506.861 174.193 505.982 174.975C505.104 175.658 503.98 176 502.613 176C499.781 176 497.779 175.219 496.607 173.656C495.436 172.094 494.654 169.994 494.264 167.357C494.264 167.26 494.166 166.479 493.971 165.014C493.873 163.549 493.678 161.889 493.385 160.033C493.189 158.08 492.994 156.127 492.799 154.174C492.604 152.221 492.457 150.609 492.359 149.34V148.754C492.164 147.777 492.018 146.557 491.92 145.092C491.92 143.627 491.822 142.211 491.627 140.844C491.432 139.184 491.285 137.523 491.188 135.863L490.602 135.131ZM487.379 106.127C484.742 108.08 482.154 110.717 479.615 114.037C477.076 117.357 475.27 120.58 474.195 123.705C473.707 125.17 473.17 127.172 472.584 129.711C471.998 132.25 471.461 134.789 470.973 137.328C470.582 139.77 470.24 142.064 469.947 144.213C469.654 146.264 469.508 147.582 469.508 148.168C469.605 148.168 469.703 148.07 469.801 147.875C469.996 147.68 470.143 147.533 470.24 147.436C476.295 141.576 480.543 135.277 482.984 128.539C485.523 121.703 486.988 114.232 487.379 106.127ZM521.51 169.701C521.314 166.186 520.973 161.498 520.484 155.639C520.094 149.682 519.605 143.529 519.02 137.182C518.531 130.834 517.994 124.828 517.408 119.164C516.822 113.5 516.334 109.105 515.943 105.98C515.943 104.711 516.529 103.881 517.701 103.49C518.873 103.1 519.996 102.904 521.07 102.904C522.438 102.904 523.854 103.295 525.318 104.076C526.881 104.857 527.857 105.932 528.248 107.299C528.248 107.689 528.297 108.422 528.395 109.496C528.492 110.473 528.541 111.498 528.541 112.572C528.639 113.646 528.736 114.721 528.834 115.795C528.932 116.771 528.98 117.455 528.98 117.846C528.98 118.432 528.98 118.871 528.98 119.164C528.98 119.457 528.98 119.75 528.98 120.043C528.98 120.238 529.029 120.482 529.127 120.775C529.225 121.068 529.371 121.557 529.566 122.24C529.762 122.045 529.957 121.801 530.152 121.508C530.445 121.215 530.641 121.02 530.738 120.922C532.301 118.676 533.814 116.723 535.279 115.062C536.744 113.305 538.258 111.693 539.82 110.229C541.383 108.666 543.092 107.055 544.947 105.395C546.9 103.637 549.146 101.635 551.686 99.3887C552.271 98.9004 552.711 98.5586 553.004 98.3633C553.297 98.0703 553.541 97.875 553.736 97.7773C554.029 97.582 554.322 97.4844 554.615 97.4844C554.908 97.3867 555.299 97.3379 555.787 97.3379C557.447 97.3379 559.107 97.9238 560.768 99.0957C562.525 100.17 563.404 101.684 563.404 103.637C563.404 104.32 563.16 105.053 562.672 105.834C562.184 106.518 561.598 107.201 560.914 107.885C560.23 108.471 559.498 109.008 558.717 109.496C558.033 109.984 557.398 110.326 556.812 110.521C554.273 112.768 551.588 115.355 548.756 118.285C545.924 121.117 543.287 124.193 540.846 127.514C538.404 130.834 536.402 134.301 534.84 137.914C533.277 141.527 532.496 145.141 532.496 148.754C532.496 152.074 532.74 155.346 533.229 158.568C533.717 161.791 533.961 165.062 533.961 168.383V173.51C533.18 174.291 532.496 174.926 531.91 175.414C531.324 175.902 530.494 176.146 529.42 176.146C527.76 176.146 526.148 175.463 524.586 174.096C523.023 172.631 521.998 171.166 521.51 169.701ZM567.652 153.588L573.072 115.941C573.268 114.672 573.805 113.744 574.684 113.158C575.66 112.572 576.734 112.279 577.906 112.279C580.055 112.279 581.764 112.914 583.033 114.184C584.303 115.355 585.377 116.82 586.256 118.578H586.402C587.574 118.578 588.6 118.383 589.479 117.992C590.455 117.504 591.627 117.26 592.994 117.26C596.119 117.26 598.756 118.236 600.904 120.189C603.15 122.143 604.957 124.535 606.324 127.367C607.691 130.102 608.668 133.08 609.254 136.303C609.938 139.525 610.279 142.357 610.279 144.799C610.279 147.729 609.498 151 607.936 154.613C606.471 158.227 604.469 161.645 601.93 164.867C599.488 168.09 596.705 170.775 593.58 172.924C590.455 175.072 587.281 176.146 584.059 176.146C581.129 176.146 578.59 175.463 576.441 174.096C574.391 172.729 572.682 171.02 571.314 168.969C570.045 166.82 569.117 164.428 568.531 161.791C567.945 159.154 567.652 156.566 567.652 154.027V153.588ZM579.957 154.467C580.152 155.443 580.348 156.566 580.543 157.836C580.738 159.105 581.031 160.277 581.422 161.352C581.812 162.328 582.35 163.109 583.033 163.695C583.814 164.184 584.889 164.184 586.256 163.695C587.525 162.523 588.893 161.205 590.357 159.74C591.822 158.275 593.189 156.713 594.459 155.053C595.826 153.393 596.949 151.635 597.828 149.779C598.707 147.924 599.146 145.971 599.146 143.92C599.537 140.6 599.293 137.572 598.414 134.838C597.535 132.006 596.266 130.004 594.605 128.832C593.043 127.562 591.236 127.416 589.186 128.393C587.135 129.271 585.084 131.762 583.033 135.863C581.861 138.402 581.031 141.381 580.543 144.799C580.152 148.119 579.957 151.195 579.957 154.027V154.467ZM653.492 152.855C653.395 152.855 652.711 153.93 651.441 156.078C650.27 158.227 648.658 160.57 646.607 163.109C644.557 165.648 642.115 167.992 639.283 170.141C636.549 172.289 633.619 173.363 630.494 173.363C626.197 173.363 622.584 172.045 619.654 169.408C616.822 166.771 615.406 163.158 615.406 158.568C615.211 156.225 615.504 153.441 616.285 150.219C617.164 146.996 618.385 143.676 619.947 140.258C621.607 136.742 623.561 133.373 625.807 130.15C628.15 126.83 630.641 123.998 633.277 121.654C635.914 119.213 638.648 117.406 641.48 116.234C644.41 115.062 647.34 114.867 650.27 115.648V113.598C650.27 111.059 650.172 108.471 649.977 105.834C649.879 103.1 649.732 100.023 649.537 96.6055C649.439 93.0898 649.293 89.0859 649.098 84.5938C649 80.0039 648.951 74.5352 648.951 68.1875C649.244 67.1133 649.732 66.4297 650.416 66.1367C651.197 65.7461 652.027 65.5508 652.906 65.5508C655.152 65.5508 656.91 66.2832 658.18 67.748C659.547 69.2129 660.377 71.0195 660.67 73.168C660.475 76.4883 660.377 79.9062 660.377 83.4219C660.475 86.8398 660.67 90.7461 660.963 95.1406C661.256 99.5352 661.695 104.516 662.281 110.082C662.965 115.648 663.795 122.24 664.771 129.857C665.748 137.377 666.92 146.068 668.287 155.932C669.654 165.697 671.266 177.025 673.121 189.916V194.896C673.121 195.482 672.877 195.922 672.389 196.215C671.998 196.508 671.461 196.703 670.777 196.801C670.191 196.996 669.557 197.094 668.873 197.094C668.287 197.191 667.848 197.24 667.555 197.24C666.09 197.24 664.527 196.801 662.867 195.922C661.207 195.141 660.23 194.018 659.938 192.553L654.518 153.441C654.518 153.148 654.371 153.002 654.078 153.002C653.883 152.904 653.688 152.855 653.492 152.855ZM627.711 156.078C627.711 156.371 627.662 156.908 627.564 157.689C627.564 158.373 627.564 159.105 627.564 159.887C627.662 160.668 627.809 161.352 628.004 161.938C628.199 162.523 628.59 162.816 629.176 162.816C631.617 162.914 634.107 161.986 636.646 160.033C639.283 158.08 641.676 155.688 643.824 152.855C645.973 149.926 647.73 146.801 649.098 143.48C650.562 140.16 651.344 137.182 651.441 134.545C651.637 131.908 651.002 129.906 649.537 128.539C648.17 127.074 645.777 126.732 642.359 127.514C638.16 131.225 634.645 135.473 631.812 140.258C629.078 145.043 627.711 150.316 627.711 156.078Z" fill="white"/>
<g clip-path="url(#clip0_108_13)">
<rect width="268" height="268" rx="134" fill="#F59842"/>
<path d="M85.6031 214.032C85.6031 203.563 86.301 193.181 87.6968 182.887C89.0927 172.593 90.314 162.299 91.3609 152.004C91.3609 151.481 91.4481 150.347 91.6226 148.602C91.7971 146.683 91.9716 144.676 92.146 142.583C92.495 140.489 92.7567 138.569 92.9312 136.825C93.2802 134.905 93.4546 133.684 93.4546 133.161V132.114L104.447 50.4575C104.098 46.9679 104.621 43.9146 106.017 41.2974C107.587 38.5057 110.379 37.1099 114.392 37.1099C118.754 36.5864 122.331 37.1971 125.123 38.9419C128.089 40.5122 130.531 42.606 132.451 45.2231C134.37 47.8403 135.94 50.7192 137.162 53.8599C138.383 57.0005 139.692 59.8794 141.087 62.4966C141.96 64.9393 143.007 67.8182 144.228 71.1333C145.624 74.4484 147.194 78.6359 148.939 83.6958C150.858 88.7557 153.039 94.9497 155.482 102.278C158.099 109.606 161.065 118.504 164.38 128.973L165.427 130.02C166.649 129.322 168.917 128.188 172.232 126.618C175.722 125.047 179.298 123.39 182.962 121.645C186.801 119.9 190.378 118.243 193.693 116.672C197.008 115.102 199.363 114.055 200.759 113.532C200.934 113.183 201.37 112.921 202.068 112.747C202.94 112.398 203.551 112.136 203.9 111.961H204.423C206.168 111.961 207.477 112.659 208.349 114.055C209.222 115.277 209.658 116.498 209.658 117.719C209.658 119.639 209.222 121.296 208.349 122.692C207.477 124.088 206.43 125.396 205.209 126.618C204.162 127.665 202.94 128.711 201.544 129.758C200.323 130.805 199.363 131.939 198.666 133.161L172.755 146.247C172.058 147.119 171.709 147.817 171.709 148.34C171.709 149.736 172.406 151.917 173.802 154.883C175.373 157.849 176.594 160.205 177.466 161.95C177.99 162.997 178.862 164.916 180.084 167.708C181.305 170.499 182.613 173.378 184.009 176.344C185.405 179.31 186.714 182.189 187.935 184.981C189.331 187.598 190.291 189.43 190.814 190.477V191.262C190.814 197.543 187.673 200.684 181.392 200.684C179.473 200.684 177.466 200.51 175.373 200.161C173.279 199.637 171.709 198.329 170.662 196.235L153.127 158.809H150.771C144.141 163.869 137.074 168.842 129.572 173.727C122.069 178.612 114.392 182.8 106.541 186.29C105.319 192.571 104.534 198.939 104.185 205.395C104.011 211.851 104.098 218.306 104.447 224.762C103.051 226.681 101.655 228.165 100.259 229.211C98.8635 230.084 96.9442 230.52 94.5015 230.52C92.0588 230.52 90.2268 229.997 89.0054 228.95C87.7841 227.728 86.9117 226.333 86.3882 224.762C85.8648 223.017 85.6031 221.185 85.6031 219.266C85.6031 217.347 85.6031 215.602 85.6031 214.032ZM108.896 163.258C114.13 161.165 119.19 158.373 124.076 154.883C129.136 151.394 133.934 148.166 138.47 145.2C138.994 144.851 139.604 144.502 140.302 144.153C141.175 143.804 141.96 143.368 142.658 142.844C143.356 142.321 144.228 141.71 145.275 141.012V138.918L121.197 70.3481L120.15 69.3013C119.627 70.3481 118.929 73.3143 118.056 78.1997C117.358 83.0851 116.486 89.4536 115.439 97.3052C114.567 104.982 113.52 113.881 112.298 124C111.252 134.12 110.117 144.938 108.896 156.454V163.258Z" fill="#484041"/>
<path d="M85.6031 214.032C85.6031 203.563 86.301 193.181 87.6968 182.887C89.0927 172.593 90.314 162.299 91.3609 152.004C91.3609 151.481 91.4481 150.347 91.6226 148.602C91.7971 146.683 91.9716 144.676 92.146 142.583C92.495 140.489 92.7567 138.569 92.9312 136.825C93.2802 134.905 93.4546 133.684 93.4546 133.161V132.114L104.447 50.4575C104.098 46.9679 104.621 43.9146 106.017 41.2974C107.587 38.5057 110.379 37.1099 114.392 37.1099C118.754 36.5864 122.331 37.1971 125.123 38.9419C128.089 40.5122 130.531 42.606 132.451 45.2231C134.37 47.8403 135.94 50.7192 137.162 53.8599C138.383 57.0005 139.692 59.8794 141.087 62.4966C141.96 64.9393 143.007 67.8182 144.228 71.1333C145.624 74.4484 147.194 78.6359 148.939 83.6958C150.858 88.7557 153.039 94.9497 155.482 102.278C158.099 109.606 161.065 118.504 164.38 128.973L165.427 130.02C166.649 129.322 168.917 128.188 172.232 126.618C175.722 125.047 179.298 123.39 182.962 121.645C186.801 119.9 190.378 118.243 193.693 116.672C197.008 115.102 199.363 114.055 200.759 113.532C200.934 113.183 201.37 112.921 202.068 112.747C202.94 112.398 203.551 112.136 203.9 111.961H204.423C206.168 111.961 207.477 112.659 208.349 114.055C209.222 115.277 209.658 116.498 209.658 117.719C209.658 119.639 209.222 121.296 208.349 122.692C207.477 124.088 206.43 125.396 205.209 126.618C204.162 127.665 202.94 128.711 201.544 129.758C200.323 130.805 199.363 131.939 198.666 133.161L172.755 146.247C172.058 147.119 171.709 147.817 171.709 148.34C171.709 149.736 172.406 151.917 173.802 154.883C175.373 157.849 176.594 160.205 177.466 161.95C177.99 162.997 178.862 164.916 180.084 167.708C181.305 170.499 182.613 173.378 184.009 176.344C185.405 179.31 186.714 182.189 187.935 184.981C189.331 187.598 190.291 189.43 190.814 190.477V191.262C190.814 197.543 187.673 200.684 181.392 200.684C179.473 200.684 177.466 200.51 175.373 200.161C173.279 199.637 171.709 198.329 170.662 196.235L153.127 158.809H150.771C144.141 163.869 137.074 168.842 129.572 173.727C122.069 178.612 114.392 182.8 106.541 186.29C105.319 192.571 104.534 198.939 104.185 205.395C104.011 211.851 104.098 218.306 104.447 224.762C103.051 226.681 101.655 228.165 100.259 229.211C98.8635 230.084 96.9442 230.52 94.5015 230.52C92.0588 230.52 90.2268 229.997 89.0054 228.95C87.7841 227.728 86.9117 226.333 86.3882 224.762C85.8648 223.017 85.6031 221.185 85.6031 219.266C85.6031 217.347 85.6031 215.602 85.6031 214.032ZM108.896 163.258C114.13 161.165 119.19 158.373 124.076 154.883C129.136 151.394 133.934 148.166 138.47 145.2C138.994 144.851 139.604 144.502 140.302 144.153C141.175 143.804 141.96 143.368 142.658 142.844C143.356 142.321 144.228 141.71 145.275 141.012V138.918L121.197 70.3481L120.15 69.3013C119.627 70.3481 118.929 73.3143 118.056 78.1997C117.358 83.0851 116.486 89.4536 115.439 97.3052C114.567 104.982 113.52 113.881 112.298 124C111.252 134.12 110.117 144.938 108.896 156.454V163.258Z" fill="#383D54"/>
</g>
<defs>
<clipPath id="clip0_108_13">
<rect width="268" height="268" rx="134" fill="white"/>
</clipPath>
</defs>
</svg>
