<svg width="599" height="358" viewBox="0 0 599 358" fill="none" xmlns="http://www.w3.org/2000/svg">
<path d="M218.508 316.252V318H200.534V291.02H218.166V292.768H202.472V303.37H216.19V305.042H202.472V316.252H218.508ZM221.383 304.32C221.383 302.699 221.662 301.103 222.219 299.532C222.802 297.936 223.638 296.492 224.727 295.2C225.816 293.883 227.146 292.831 228.717 292.046C230.313 291.261 232.124 290.868 234.151 290.868C236.558 290.868 238.61 291.425 240.307 292.54C242.004 293.629 243.271 295.035 244.107 296.758L242.511 297.67C241.878 296.429 241.092 295.441 240.155 294.706C239.243 293.971 238.255 293.452 237.191 293.148C236.127 292.819 235.063 292.654 233.999 292.654C232.302 292.654 230.782 292.996 229.439 293.68C228.122 294.364 227.007 295.276 226.095 296.416C225.183 297.556 224.486 298.823 224.005 300.216C223.549 301.609 223.321 303.015 223.321 304.434C223.321 306.03 223.6 307.55 224.157 308.994C224.714 310.413 225.474 311.679 226.437 312.794C227.425 313.909 228.565 314.795 229.857 315.454C231.174 316.113 232.593 316.442 234.113 316.442C235.202 316.442 236.304 316.265 237.419 315.91C238.559 315.53 239.623 314.96 240.611 314.2C241.599 313.415 242.397 312.401 243.005 311.16L244.677 311.958C244.094 313.301 243.22 314.441 242.055 315.378C240.89 316.315 239.598 317.025 238.179 317.506C236.76 317.987 235.354 318.228 233.961 318.228C232.137 318.228 230.452 317.835 228.907 317.05C227.362 316.239 226.019 315.175 224.879 313.858C223.764 312.515 222.903 311.021 222.295 309.374C221.687 307.702 221.383 306.017 221.383 304.32ZM259.976 318.19C258.101 318.19 256.391 317.81 254.846 317.05C253.3 316.265 251.97 315.226 250.856 313.934C249.741 312.642 248.88 311.185 248.272 309.564C247.664 307.917 247.36 306.233 247.36 304.51C247.36 302.711 247.676 301.001 248.31 299.38C248.943 297.733 249.83 296.277 250.97 295.01C252.135 293.718 253.478 292.705 254.998 291.97C256.543 291.21 258.215 290.83 260.014 290.83C261.914 290.83 263.624 291.223 265.144 292.008C266.689 292.793 268.019 293.845 269.134 295.162C270.248 296.479 271.11 297.949 271.718 299.57C272.326 301.191 272.63 302.838 272.63 304.51C272.63 306.334 272.313 308.069 271.68 309.716C271.046 311.337 270.147 312.794 268.982 314.086C267.842 315.353 266.499 316.353 264.954 317.088C263.434 317.823 261.774 318.19 259.976 318.19ZM249.298 304.51C249.298 306.055 249.564 307.537 250.096 308.956C250.628 310.375 251.362 311.641 252.3 312.756C253.262 313.871 254.39 314.757 255.682 315.416C256.999 316.075 258.443 316.404 260.014 316.404C261.61 316.404 263.066 316.062 264.384 315.378C265.701 314.694 266.828 313.782 267.766 312.642C268.703 311.502 269.412 310.235 269.894 308.842C270.4 307.423 270.654 305.979 270.654 304.51C270.654 302.965 270.388 301.483 269.856 300.064C269.349 298.645 268.614 297.379 267.652 296.264C266.689 295.149 265.549 294.263 264.232 293.604C262.94 292.945 261.534 292.616 260.014 292.616C258.392 292.616 256.923 292.958 255.606 293.642C254.288 294.326 253.161 295.238 252.224 296.378C251.312 297.518 250.59 298.797 250.058 300.216C249.551 301.609 249.298 303.041 249.298 304.51ZM276.845 308.538V306.79H287.789V308.538H276.845ZM314.764 291.02V318H312.826V305.08H295.802V318H293.864V291.02H295.802V303.332H312.826V291.02H314.764ZM332.561 318.19C330.687 318.19 328.977 317.81 327.431 317.05C325.886 316.265 324.556 315.226 323.441 313.934C322.327 312.642 321.465 311.185 320.857 309.564C320.249 307.917 319.945 306.233 319.945 304.51C319.945 302.711 320.262 301.001 320.895 299.38C321.529 297.733 322.415 296.277 323.555 295.01C324.721 293.718 326.063 292.705 327.583 291.97C329.129 291.21 330.801 290.83 332.599 290.83C334.499 290.83 336.209 291.223 337.729 292.008C339.275 292.793 340.605 293.845 341.719 295.162C342.834 296.479 343.695 297.949 344.303 299.57C344.911 301.191 345.215 302.838 345.215 304.51C345.215 306.334 344.899 308.069 344.265 309.716C343.632 311.337 342.733 312.794 341.567 314.086C340.427 315.353 339.085 316.353 337.539 317.088C336.019 317.823 334.36 318.19 332.561 318.19ZM321.883 304.51C321.883 306.055 322.149 307.537 322.681 308.956C323.213 310.375 323.948 311.641 324.885 312.756C325.848 313.871 326.975 314.757 328.267 315.416C329.585 316.075 331.029 316.404 332.599 316.404C334.195 316.404 335.652 316.062 336.969 315.378C338.287 314.694 339.414 313.782 340.351 312.642C341.289 311.502 341.998 310.235 342.479 308.842C342.986 307.423 343.239 305.979 343.239 304.51C343.239 302.965 342.973 301.483 342.441 300.064C341.935 298.645 341.2 297.379 340.237 296.264C339.275 295.149 338.135 294.263 336.817 293.604C335.525 292.945 334.119 292.616 332.599 292.616C330.978 292.616 329.509 292.958 328.191 293.642C326.874 294.326 325.747 295.238 324.809 296.378C323.897 297.518 323.175 298.797 322.643 300.216C322.137 301.609 321.883 303.041 321.883 304.51ZM366.113 295.504C365.682 295.023 365.201 294.605 364.669 294.25C364.137 293.87 363.567 293.566 362.959 293.338C362.351 293.085 361.692 292.895 360.983 292.768C360.273 292.641 359.513 292.578 358.703 292.578C356.068 292.578 354.143 293.085 352.927 294.098C351.736 295.086 351.141 296.429 351.141 298.126C351.141 299.266 351.407 300.178 351.939 300.862C352.496 301.521 353.357 302.053 354.523 302.458C355.688 302.863 357.195 303.256 359.045 303.636C360.995 304.041 362.68 304.523 364.099 305.08C365.517 305.612 366.607 306.347 367.367 307.284C368.152 308.221 368.545 309.488 368.545 311.084C368.545 312.275 368.317 313.326 367.861 314.238C367.405 315.125 366.746 315.859 365.885 316.442C365.023 317.025 363.997 317.468 362.807 317.772C361.641 318.076 360.337 318.228 358.893 318.228C357.499 318.228 356.169 318.076 354.903 317.772C353.636 317.468 352.445 317.025 351.331 316.442C350.216 315.859 349.177 315.112 348.215 314.2L349.241 312.642C349.798 313.25 350.419 313.795 351.103 314.276C351.812 314.732 352.572 315.125 353.383 315.454C354.219 315.783 355.105 316.049 356.043 316.252C356.98 316.429 357.955 316.518 358.969 316.518C361.325 316.518 363.161 316.087 364.479 315.226C365.821 314.339 366.493 313.035 366.493 311.312C366.493 310.121 366.189 309.159 365.581 308.424C364.973 307.689 364.035 307.094 362.769 306.638C361.502 306.157 359.919 305.713 358.019 305.308C356.119 304.903 354.497 304.447 353.155 303.94C351.837 303.433 350.837 302.749 350.153 301.888C349.494 301.027 349.165 299.861 349.165 298.392C349.165 296.771 349.557 295.403 350.343 294.288C351.153 293.148 352.281 292.287 353.725 291.704C355.169 291.121 356.828 290.83 358.703 290.83C359.868 290.83 360.945 290.944 361.933 291.172C362.946 291.4 363.871 291.755 364.707 292.236C365.568 292.692 366.366 293.275 367.101 293.984L366.113 295.504ZM392.163 292.768H382.283V318H380.345V292.768H370.465V291.02H392.163V292.768ZM414.334 316.252V318H396.36V291.02H413.992V292.768H398.298V303.37H412.016V305.042H398.298V316.252H414.334ZM419.628 318V291.02H421.566V316.252H437.678V318H419.628Z" fill="white"/>
<path d="M78.228 280.42C75.428 280.42 72.964 279.86 70.836 278.74C68.764 277.676 67.728 276.332 67.728 274.708C67.728 273.812 68.036 272.804 68.652 271.684C69.324 270.62 70.08 269.696 70.92 268.912C71.76 268.128 72.432 267.736 72.936 267.736C73.272 267.736 73.468 267.988 73.524 268.492C74.532 271.292 75.708 273.28 77.052 274.456C78.452 275.632 80.16 276.22 82.176 276.22C84.136 276.22 85.76 275.66 87.048 274.54C88.392 273.42 89.484 271.628 90.324 269.164C91.22 266.7 92.004 263.34 92.676 259.084L93.852 252.196C89.26 256.732 84.444 259 79.404 259C75.036 259 71.564 257.208 68.988 253.624C66.468 250.04 65.208 244.86 65.208 238.084C65.208 230.636 66.72 224 69.744 218.176C72.768 212.352 76.604 207.844 81.252 204.652C85.956 201.46 90.632 199.864 95.28 199.864C98.192 199.864 100.74 200.452 102.924 201.628C105.164 202.748 106.284 204.456 106.284 206.752C106.284 207.256 106.144 207.984 105.864 208.936C105.584 209.888 105.08 210.952 104.352 212.128C104.016 212.576 103.736 212.912 103.512 213.136C103.288 213.304 103.008 213.388 102.672 213.388C102.336 213.388 102.084 213.22 101.916 212.884C101.748 212.548 101.608 212.128 101.496 211.624C101.44 211.064 101.384 210.672 101.328 210.448C100.88 208.376 99.956 206.836 98.556 205.828C97.156 204.82 95.196 204.316 92.676 204.316C88.14 204.316 84.332 206.052 81.252 209.524C78.228 212.94 75.96 217.168 74.448 222.208C72.992 227.192 72.264 232.036 72.264 236.74C72.264 242.116 73.244 246.204 75.204 249.004C77.164 251.804 79.852 253.204 83.268 253.204C85.508 253.204 87.692 252.56 89.82 251.272C91.948 249.984 93.712 247.912 95.112 245.056L96.792 232.624C96.904 231.28 97.66 229.936 99.06 228.592C100.516 227.192 101.86 226.492 103.092 226.492C103.764 226.492 104.1 226.66 104.1 226.996C104.1 227.108 103.792 227.584 103.176 228.424C102.616 229.208 102.224 230.552 102 232.456L99.396 253.876C97.94 262.388 95.392 268.94 91.752 273.532C88.168 278.124 83.66 280.42 78.228 280.42ZM112.476 259.84C112.252 259.84 112.056 259.784 111.888 259.672C111.776 259.616 111.72 259.532 111.72 259.42C111.72 259.252 111.888 258.888 112.224 258.328C112.56 257.768 112.812 256.984 112.98 255.976C113.204 254.8 113.4 253.736 113.568 252.784C113.736 251.776 113.904 250.852 114.072 250.012C115.472 242.34 116.396 236.992 116.844 233.968C117.348 230.888 117.572 228.648 117.516 227.248C117.516 226.52 117.46 225.988 117.348 225.652C117.236 225.316 116.984 225.148 116.592 225.148C116.088 225.148 115.444 225.568 114.66 226.408C113.876 227.248 113.148 228.228 112.476 229.348C112.196 229.852 111.944 230.3 111.72 230.692C111.496 231.028 111.3 231.28 111.132 231.448C111.02 231.616 110.88 231.7 110.712 231.7C110.488 231.7 110.32 231.616 110.208 231.448C110.096 231.28 110.04 231.056 110.04 230.776C110.04 229.712 110.628 228.228 111.804 226.324C113.036 224.42 114.464 222.74 116.088 221.284C117.768 219.772 119.252 219.016 120.54 219.016C121.604 219.016 122.332 219.436 122.724 220.276C123.172 221.116 123.396 222.432 123.396 224.224C123.396 226.688 122.864 230.02 121.8 234.22H121.968C127.288 224.084 132.216 219.016 136.752 219.016C137.928 219.016 138.824 219.352 139.44 220.024C140.112 220.64 140.448 221.536 140.448 222.712C140.448 223.944 140.168 225.204 139.608 226.492C139.104 227.78 138.46 228.844 137.676 229.684C136.948 230.524 136.276 230.944 135.66 230.944C135.268 230.944 135.128 230.692 135.24 230.188C135.408 229.404 135.492 228.788 135.492 228.34C135.492 226.996 134.764 226.324 133.308 226.324C131.572 226.324 129.836 227.332 128.1 229.348C126.364 231.364 124.824 233.828 123.48 236.74C122.192 239.652 121.296 242.312 120.792 244.72C120.12 247.296 119.7 249.984 119.532 252.784C119.42 253.848 118.916 254.94 118.02 256.06C117.18 257.124 116.2 258.02 115.08 258.748C113.96 259.476 113.092 259.84 112.476 259.84ZM153.104 214.228C152.544 214.228 152.292 213.948 152.348 213.388L153.356 207.508C153.636 205.884 154.224 204.652 155.12 203.812C156.072 202.916 157.248 202.468 158.648 202.468H158.984C159.32 202.468 159.516 202.524 159.572 202.636C159.684 202.748 159.712 202.972 159.656 203.308L158.732 209.104C158.508 210.672 157.92 211.932 156.968 212.884C156.016 213.78 154.84 214.228 153.44 214.228H153.104ZM148.148 259.84C146.356 259.84 145.46 258.552 145.46 255.976C145.46 254.688 145.628 253.204 145.964 251.524L149.996 229.096C150.22 227.64 150.332 226.744 150.332 226.408C150.332 225.568 150.08 225.148 149.576 225.148C148.904 225.148 148.092 225.68 147.14 226.744C146.188 227.808 145.152 229.488 144.032 231.784C143.808 232.456 143.528 232.792 143.192 232.792C142.856 232.792 142.688 232.512 142.688 231.952C142.688 230.608 143.276 228.9 144.452 226.828C145.684 224.7 147.168 222.88 148.904 221.368C150.696 219.8 152.348 219.016 153.86 219.016C155.596 219.016 156.464 220.248 156.464 222.712C156.464 223.888 156.296 225.428 155.96 227.332L151.592 251.608L151.424 252.7C151.424 253.316 151.676 253.624 152.18 253.624C152.852 253.624 153.664 253.092 154.616 252.028C155.568 250.908 156.604 249.228 157.724 246.988C158.004 246.372 158.284 246.064 158.564 246.064C158.9 246.064 159.068 246.428 159.068 247.156C159.068 248.444 158.452 250.124 157.22 252.196C156.044 254.212 154.588 256.004 152.852 257.572C151.116 259.084 149.548 259.84 148.148 259.84ZM169.327 259.84C168.263 259.84 167.479 259.336 166.975 258.328C166.527 257.264 166.303 255.948 166.303 254.38C166.303 253.316 166.415 252.056 166.639 250.6L171.595 217.504C172.771 209.888 174.199 204.008 175.879 199.864C177.559 195.72 179.575 192.724 181.927 190.876C183.271 189.812 184.671 189.028 186.127 188.524C187.583 188.02 189.823 187.404 192.847 186.676C194.247 186.396 195.143 186.172 195.535 186.004C195.927 185.836 196.179 185.752 196.291 185.752C196.683 185.752 196.879 185.976 196.879 186.424C196.879 186.648 196.739 186.984 196.459 187.432C196.235 187.88 195.843 188.356 195.283 188.86C194.667 189.42 194.079 189.812 193.519 190.036C192.959 190.204 192.287 190.316 191.503 190.372C188.255 190.708 185.903 191.716 184.447 193.396C181.703 196.532 179.687 202.328 178.399 210.784L172.267 250.348C172.211 250.74 172.183 251.216 172.183 251.776C172.183 253.008 172.547 253.624 173.275 253.624C174.955 253.624 176.915 251.132 179.155 246.148C179.379 245.532 179.687 245.224 180.079 245.224C180.471 245.224 180.667 245.616 180.667 246.4C180.667 248.248 179.995 250.236 178.651 252.364C177.363 254.492 175.823 256.284 174.031 257.74C172.239 259.14 170.671 259.84 169.327 259.84ZM189.343 259.84C188.279 259.84 187.495 259.336 186.991 258.328C186.543 257.264 186.319 255.948 186.319 254.38C186.319 253.316 186.431 252.056 186.655 250.6L191.611 217.504C192.787 209.888 194.215 204.008 195.895 199.864C197.575 195.72 199.591 192.724 201.943 190.876C203.287 189.812 204.687 189.028 206.143 188.524C207.599 188.02 209.839 187.404 212.863 186.676C214.263 186.396 215.159 186.172 215.551 186.004C215.943 185.836 216.195 185.752 216.307 185.752C216.699 185.752 216.895 185.976 216.895 186.424C216.895 186.648 216.755 186.984 216.475 187.432C216.251 187.88 215.859 188.356 215.299 188.86C214.683 189.42 214.095 189.812 213.535 190.036C212.975 190.204 212.303 190.316 211.519 190.372C208.271 190.708 205.919 191.716 204.463 193.396C201.719 196.532 199.703 202.328 198.415 210.784L192.283 250.348C192.227 250.74 192.199 251.216 192.199 251.776C192.199 253.008 192.563 253.624 193.291 253.624C194.971 253.624 196.931 251.132 199.171 246.148C199.395 245.532 199.703 245.224 200.095 245.224C200.487 245.224 200.683 245.616 200.683 246.4C200.683 248.248 200.011 250.236 198.667 252.364C197.379 254.492 195.839 256.284 194.047 257.74C192.255 259.14 190.687 259.84 189.343 259.84ZM213.537 259.84C211.185 259.84 209.393 258.944 208.161 257.152C206.985 255.304 206.397 252.756 206.397 249.508C206.397 244.972 207.489 240.324 209.673 235.564C211.857 230.804 214.545 226.856 217.737 223.72C220.985 220.584 224.065 219.016 226.977 219.016C229.161 219.016 230.841 219.996 232.017 221.956C233.193 223.86 233.781 226.38 233.781 229.516C233.781 233.716 232.745 238.196 230.673 242.956C228.657 247.716 226.081 251.72 222.945 254.968C219.809 258.216 216.673 259.84 213.537 259.84ZM217.653 254.296C219.501 254.296 221.181 253.372 222.693 251.524C224.205 249.62 225.409 247.128 226.305 244.048C227.201 240.912 227.649 237.608 227.649 234.136C227.649 227.752 225.997 224.56 222.693 224.56C220.621 224.56 218.801 225.68 217.233 227.92C215.721 230.16 214.545 232.904 213.705 236.152C212.921 239.344 212.529 242.34 212.529 245.14C212.529 247.828 212.921 250.04 213.705 251.776C214.545 253.456 215.861 254.296 217.653 254.296ZM272.326 259.84C269.918 259.84 267.818 259.392 266.026 258.496C264.29 257.6 262.946 256.536 261.994 255.304C261.042 254.072 260.51 253.008 260.398 252.112L260.314 251.44C260.314 250.432 260.622 249.396 261.238 248.332C261.854 247.268 262.554 246.372 263.338 245.644C264.178 244.916 264.85 244.552 265.354 244.552C265.578 244.552 265.718 244.72 265.774 245.056C266.11 247.408 266.502 249.312 266.95 250.768C267.398 252.168 268.21 253.344 269.386 254.296C270.618 255.192 272.354 255.64 274.594 255.64C278.29 255.64 281.202 254.436 283.33 252.028C285.514 249.564 286.606 246.12 286.606 241.696C286.606 237.832 285.766 234.836 284.086 232.708C282.406 230.58 279.942 229.516 276.694 229.516C276.022 229.516 275.266 229.628 274.426 229.852C273.866 230.02 273.614 229.852 273.67 229.348C273.67 228.9 273.782 228.424 274.006 227.92C274.23 227.36 274.51 226.968 274.846 226.744C279.102 226.184 282.35 224.728 284.59 222.376C286.83 219.968 287.95 216.86 287.95 213.052C287.95 210.476 287.418 208.488 286.354 207.088C285.29 205.632 283.666 204.904 281.482 204.904C280.082 204.904 278.71 205.24 277.366 205.912C276.078 206.528 274.678 207.62 273.166 209.188C272.382 209.972 271.822 210.364 271.486 210.364C271.094 210.364 270.898 210.056 270.898 209.44C270.898 208.656 271.262 207.76 271.99 206.752C273.446 204.624 275.322 202.944 277.618 201.712C279.914 200.48 282.322 199.864 284.842 199.864C288.034 199.864 290.498 200.872 292.234 202.888C293.97 204.904 294.838 207.704 294.838 211.288C294.838 214.76 293.942 217.756 292.15 220.276C290.414 222.796 287.726 225.008 284.086 226.912V226.996C287.446 228.004 289.798 229.656 291.142 231.952C292.542 234.192 293.242 236.74 293.242 239.596C293.242 243.348 292.206 246.764 290.134 249.844C288.062 252.924 285.402 255.36 282.154 257.152C278.906 258.944 275.63 259.84 272.326 259.84ZM326.638 259C326.358 259 326.218 258.72 326.218 258.16C326.218 257.544 326.358 256.984 326.638 256.48C326.918 255.976 327.394 255.388 328.066 254.716C329.354 253.54 330.194 252.7 330.586 252.196C330.978 251.636 331.258 250.936 331.426 250.096C331.65 249.2 332.014 247.352 332.518 244.552L337.642 214.648C337.866 213.248 338.818 211.848 340.498 210.448C342.234 209.048 343.774 208.348 345.118 208.348C345.734 208.348 346.042 208.488 346.042 208.768C346.042 208.936 345.762 209.412 345.202 210.196C344.698 210.98 344.306 212.296 344.026 214.144L341.506 230.188C342.29 230.356 343.522 230.44 345.202 230.44C347.89 230.44 350.27 229.824 352.342 228.592C354.47 227.304 356.122 225.568 357.298 223.384C358.474 221.2 359.062 218.764 359.062 216.076C359.062 212.268 357.886 209.384 355.534 207.424C353.182 205.408 349.822 204.4 345.454 204.4C342.094 204.4 338.986 205.016 336.13 206.248C333.274 207.48 330.754 209.328 328.57 211.792C328.066 212.464 327.674 212.94 327.394 213.22C327.114 213.444 326.806 213.556 326.47 213.556C326.134 213.556 325.966 213.36 325.966 212.968L326.05 212.044C326.554 209.972 327.814 208.012 329.83 206.164C331.846 204.26 334.45 202.748 337.642 201.628C340.834 200.452 344.334 199.864 348.142 199.864C353.462 199.864 357.718 201.068 360.91 203.476C364.102 205.828 365.698 209.104 365.698 213.304C365.698 217 364.466 220.472 362.002 223.72C359.538 226.912 356.346 229.544 352.426 231.616C348.562 233.632 344.558 234.808 340.414 235.144L337.978 249.76C337.698 251.216 337.166 252.392 336.382 253.288V253.372C336.662 253.484 337.082 253.652 337.642 253.876C338.202 254.044 338.762 254.128 339.322 254.128C339.994 254.128 340.666 253.988 341.338 253.708C342.066 253.372 342.542 253.204 342.766 253.204C343.102 253.204 343.27 253.4 343.27 253.792C343.27 254.296 342.934 254.884 342.262 255.556C340.134 257.852 338.426 259 337.138 259C336.634 259 335.71 258.776 334.366 258.328C332.574 257.824 331.398 257.572 330.838 257.572C329.998 257.572 329.13 257.824 328.234 258.328C327.338 258.776 326.806 259 326.638 259ZM375.654 259.84C373.302 259.84 372.126 258.076 372.126 254.548C372.126 252.812 372.406 250.348 372.966 247.156L375.822 229.852C376.046 227.836 376.158 226.688 376.158 226.408C376.158 225.568 375.934 225.148 375.486 225.148C374.198 225.148 372.686 226.828 370.95 230.188C370.838 230.412 370.642 230.804 370.362 231.364C370.138 231.868 369.942 232.204 369.774 232.372C369.606 232.484 369.438 232.54 369.27 232.54C369.158 232.54 369.046 232.456 368.934 232.288C368.822 232.064 368.766 231.812 368.766 231.532C368.766 230.412 369.326 228.844 370.446 226.828C371.622 224.756 373.05 222.936 374.73 221.368C376.41 219.8 378.006 219.016 379.518 219.016C380.414 219.016 381.114 219.408 381.618 220.192C382.178 220.92 382.458 221.928 382.458 223.216C382.458 224.056 382.402 224.7 382.29 225.148L378.342 249.928C378.23 250.712 378.174 251.216 378.174 251.44C378.174 252.616 378.622 253.204 379.518 253.204C381.366 253.204 383.354 251.972 385.482 249.508C387.666 246.988 389.57 243.992 391.194 240.52C392.874 237.048 393.966 233.996 394.47 231.364L395.646 225.232C396.094 223.216 396.99 221.676 398.334 220.612C399.734 219.548 401.022 219.016 402.198 219.016C402.646 219.016 402.87 219.156 402.87 219.436C402.87 219.604 402.758 219.94 402.534 220.444C402.31 220.892 402.142 221.452 402.03 222.124C401.246 225.596 399.706 233.66 397.41 246.316L396.906 249.004C396.514 250.964 396.318 252.168 396.318 252.616C396.318 253.4 396.57 253.792 397.074 253.792C397.97 253.792 398.95 253.092 400.014 251.692C401.134 250.236 402.03 248.668 402.702 246.988C403.038 246.372 403.318 246.064 403.542 246.064C403.878 246.064 404.046 246.316 404.046 246.82C404.046 247.436 403.99 247.968 403.878 248.416C403.486 250.432 402.702 252.308 401.526 254.044C400.35 255.78 399.034 257.18 397.578 258.244C396.122 259.308 394.778 259.84 393.546 259.84C391.362 259.84 390.326 258.104 390.438 254.632C390.55 253.12 390.886 251.076 391.446 248.5L392.202 244.384H392.118C389.206 249.032 386.238 252.784 383.214 255.64C380.19 258.44 377.67 259.84 375.654 259.84ZM412.044 259.84C411.54 259.84 411.288 259.672 411.288 259.336C411.288 259.112 411.4 258.636 411.624 257.908C411.904 257.124 412.268 255.808 412.716 253.96C413.836 249.312 415.18 241.556 416.748 230.692C417.084 228.564 417.252 227.08 417.252 226.24C417.252 225.512 417.084 225.148 416.748 225.148C415.796 225.148 414.368 226.828 412.464 230.188C412.184 230.692 411.932 231.14 411.708 231.532C411.484 231.868 411.288 232.12 411.12 232.288C411.008 232.456 410.868 232.54 410.7 232.54C410.252 232.54 410.028 232.26 410.028 231.7C410.028 230.58 410.644 228.984 411.876 226.912C413.108 224.84 414.564 223.02 416.244 221.452C417.924 219.828 419.436 219.016 420.78 219.016C421.676 219.016 422.32 219.408 422.712 220.192C423.104 220.976 423.3 221.956 423.3 223.132C423.3 224.98 422.852 228.592 421.956 233.968H422.04C424.616 229.432 427.444 225.82 430.524 223.132C433.604 220.388 436.264 219.016 438.504 219.016C440.856 219.016 442.032 220.668 442.032 223.972C442.032 225.204 441.78 227.276 441.276 230.188L439.344 240.268C437.944 247.38 437.244 251.412 437.244 252.364C437.244 252.756 437.328 253.12 437.496 253.456C437.72 253.736 438.056 253.876 438.504 253.876C440.016 253.876 441.752 251.58 443.712 246.988C443.88 246.372 444.16 246.064 444.552 246.064C444.888 246.064 445.056 246.4 445.056 247.072C445.056 247.576 445.028 248.024 444.972 248.416C444.58 250.432 443.768 252.336 442.536 254.128C441.304 255.864 439.932 257.264 438.42 258.328C436.908 259.336 435.536 259.84 434.304 259.84C433.128 259.84 432.316 259.364 431.868 258.412C431.476 257.404 431.28 256.312 431.28 255.136C431.28 252.616 431.98 248.08 433.38 241.528C434.724 235.144 435.452 230.72 435.564 228.256C435.62 227.248 435.536 226.548 435.312 226.156C435.144 225.708 434.696 225.484 433.968 225.484C432.232 225.484 430.356 226.632 428.34 228.928C426.38 231.224 424.616 234.052 423.048 237.412C421.48 240.716 420.444 243.74 419.94 246.484L418.596 253.792C418.26 255.248 417.364 256.62 415.908 257.908C414.452 259.196 413.164 259.84 412.044 259.84ZM458.785 259.84C457.105 259.84 455.929 259.28 455.257 258.16C454.585 256.984 454.249 255.416 454.249 253.456C454.249 252 454.361 250.46 454.585 248.836C454.865 247.156 455.033 246.148 455.089 245.812L458.533 224.224H450.049C449.769 224.224 449.629 224.084 449.629 223.804C449.629 223.244 450.245 222.46 451.477 221.452C452.709 220.388 453.605 219.856 454.165 219.856H459.205L460.045 214.648C460.269 212.8 461.137 211.148 462.649 209.692C464.161 208.236 465.673 207.508 467.185 207.508C467.465 207.508 467.605 207.648 467.605 207.928C467.605 208.152 467.353 208.824 466.849 209.944C466.345 211.008 465.981 212.156 465.757 213.388L464.749 219.856H472.981C473.317 219.856 473.485 220.024 473.485 220.36C473.485 220.808 472.813 221.564 471.469 222.628C470.181 223.692 469.341 224.224 468.949 224.224H464.245L460.801 245.644C460.745 246.036 460.577 246.988 460.297 248.5C460.073 250.012 459.961 251.188 459.961 252.028C459.961 253.876 460.577 254.8 461.809 254.8C462.705 254.8 463.657 254.38 464.665 253.54C465.673 252.644 466.569 251.412 467.353 249.844C467.409 249.732 467.465 249.62 467.521 249.508C467.633 249.396 467.745 249.34 467.857 249.34C468.137 249.34 468.277 249.704 468.277 250.432C468.277 251.552 467.773 252.868 466.765 254.38C465.813 255.892 464.581 257.18 463.069 258.244C461.613 259.308 460.185 259.84 458.785 259.84ZM478.677 259.84C475.821 259.84 474.393 257.124 474.393 251.692C474.393 246.484 475.513 241.36 477.753 236.32C480.049 231.224 483.129 227.08 486.993 223.888C490.857 220.64 495.029 219.016 499.509 219.016C501.805 219.016 503.793 219.38 505.473 220.108C504.745 222.964 504.241 225.064 503.961 226.408L502.197 235.48C500.629 242.648 499.677 247.604 499.341 250.348C499.285 250.74 499.257 251.216 499.257 251.776C499.257 253.008 499.621 253.624 500.349 253.624C501.245 253.624 502.085 253.064 502.869 251.944C503.653 250.768 504.549 249.116 505.557 246.988C505.613 246.932 505.697 246.764 505.809 246.484C505.977 246.204 506.173 246.064 506.397 246.064C506.733 246.064 506.901 246.4 506.901 247.072L506.733 248.416C506.341 250.264 505.529 252.084 504.297 253.876C503.121 255.668 501.777 257.124 500.265 258.244C498.809 259.308 497.493 259.84 496.317 259.84C494.357 259.84 493.377 258.244 493.377 255.052C493.377 253.82 493.517 252.56 493.797 251.272L495.225 243.964H495.141C492.453 248.668 489.569 252.504 486.489 255.472C483.465 258.384 480.861 259.84 478.677 259.84ZM482.625 252.952C484.193 252.952 485.985 251.748 488.001 249.34C490.073 246.876 491.977 243.88 493.713 240.352C495.505 236.824 496.737 233.66 497.409 230.86L498.753 225.484C497.073 224.364 495.309 223.804 493.461 223.804C491.053 223.804 488.841 225.204 486.825 228.004C484.865 230.748 483.325 234.108 482.205 238.084C481.085 242.004 480.525 245.56 480.525 248.752C480.525 250.152 480.665 251.216 480.945 251.944C481.281 252.616 481.841 252.952 482.625 252.952ZM516.597 259.84C514.861 259.84 513.377 259.364 512.145 258.412C510.913 257.46 510.101 256.2 509.709 254.632C509.597 254.184 509.765 253.484 510.213 252.532C510.717 251.524 511.361 250.544 512.145 249.592C512.593 249.088 512.957 248.836 513.237 248.836C513.517 248.836 513.741 249.06 513.909 249.508C515.589 253.428 517.913 255.388 520.881 255.388C522.393 255.388 523.569 254.94 524.409 254.044C525.305 253.092 525.753 251.832 525.753 250.264C525.753 248.136 524.549 245.392 522.141 242.032L520.377 239.512C519.033 237.608 518.081 236.04 517.521 234.808C517.017 233.576 516.765 232.26 516.765 230.86C516.765 228.62 517.353 226.604 518.529 224.812C519.761 223.02 521.357 221.62 523.317 220.612C525.277 219.548 527.321 219.016 529.449 219.016C533.481 219.016 535.497 220.388 535.497 223.132C535.497 224.14 535.133 225.148 534.405 226.156C534.013 226.828 533.677 227.164 533.397 227.164C533.061 227.164 532.753 226.828 532.473 226.156C531.857 225.092 531.101 224.336 530.205 223.888C529.365 223.384 528.273 223.132 526.929 223.132C525.361 223.132 524.101 223.552 523.149 224.392C522.197 225.232 521.721 226.296 521.721 227.584C521.721 228.312 521.945 229.152 522.393 230.104C522.897 231 523.821 232.4 525.165 234.304L526.929 236.74C528.497 238.812 529.589 240.604 530.205 242.116C530.821 243.572 531.129 245.112 531.129 246.736C531.129 248.808 530.457 250.88 529.113 252.952C527.769 254.968 525.977 256.62 523.737 257.908C521.497 259.196 519.117 259.84 516.597 259.84Z" fill="white"/>
<path d="M318.5 0L390.813 122.25H246.187L318.5 0Z" fill="#FCB819"/>
<path d="M402.5 42L474.813 164.25H330.187L402.5 42Z" fill="#009B9F"/>
<path d="M235.5 42L307.813 164.25H163.187L235.5 42Z" fill="#9F9C3F"/>
</svg>
