<svg width="500" height="500" viewBox="0 0 500 500" fill="none" xmlns="http://www.w3.org/2000/svg">
<g clip-path="url(#clip0_108_10)">
<rect width="500" height="500" rx="250" fill="#F59842"/>
<path d="M159.707 400.238C159.707 380.707 161.009 361.339 163.613 342.133C166.217 322.927 168.496 303.721 170.449 284.516C170.449 283.539 170.612 281.423 170.938 278.168C171.263 274.587 171.589 270.844 171.914 266.938C172.565 263.031 173.053 259.451 173.379 256.195C174.03 252.615 174.355 250.336 174.355 249.359V247.406L194.863 95.0625C194.212 88.5521 195.189 82.8555 197.793 77.9727C200.723 72.7643 205.931 70.1602 213.418 70.1602C221.556 69.1836 228.229 70.3229 233.438 73.5781C238.971 76.5078 243.529 80.4141 247.109 85.2969C250.69 90.1797 253.62 95.5508 255.898 101.41C258.177 107.27 260.618 112.641 263.223 117.523C264.85 122.081 266.803 127.452 269.082 133.637C271.686 139.822 274.616 147.634 277.871 157.074C281.452 166.514 285.521 178.07 290.078 191.742C294.961 205.414 300.495 222.016 306.68 241.547L308.633 243.5C310.911 242.198 315.143 240.082 321.328 237.152C327.839 234.223 334.512 231.13 341.348 227.875C348.509 224.62 355.182 221.527 361.367 218.598C367.552 215.668 371.947 213.715 374.551 212.738C374.876 212.087 375.69 211.599 376.992 211.273C378.62 210.622 379.759 210.134 380.41 209.809H381.387C384.642 209.809 387.083 211.111 388.711 213.715C390.339 215.993 391.152 218.272 391.152 220.551C391.152 224.132 390.339 227.224 388.711 229.828C387.083 232.432 385.13 234.874 382.852 237.152C380.898 239.105 378.62 241.059 376.016 243.012C373.737 244.965 371.947 247.081 370.645 249.359L322.305 273.773C321.003 275.401 320.352 276.703 320.352 277.68C320.352 280.284 321.654 284.353 324.258 289.887C327.188 295.421 329.466 299.815 331.094 303.07C332.07 305.023 333.698 308.604 335.977 313.812C338.255 319.021 340.697 324.392 343.301 329.926C345.905 335.46 348.346 340.831 350.625 346.039C353.229 350.922 355.02 354.34 355.996 356.293V357.758C355.996 369.477 350.137 375.336 338.418 375.336C334.837 375.336 331.094 375.01 327.188 374.359C323.281 373.383 320.352 370.941 318.398 367.035L285.684 297.211H281.289C268.919 306.651 255.736 315.928 241.738 325.043C227.741 334.158 213.418 341.97 198.77 348.48C196.491 360.199 195.026 372.081 194.375 384.125C194.049 396.169 194.212 408.214 194.863 420.258C192.259 423.839 189.655 426.605 187.051 428.559C184.447 430.186 180.866 431 176.309 431C171.751 431 168.333 430.023 166.055 428.07C163.776 425.792 162.148 423.188 161.172 420.258C160.195 417.003 159.707 413.585 159.707 410.004C159.707 406.423 159.707 403.168 159.707 400.238ZM203.164 305.512C212.93 301.605 222.37 296.397 231.484 289.887C240.924 283.376 249.876 277.354 258.34 271.82C259.316 271.169 260.456 270.518 261.758 269.867C263.385 269.216 264.85 268.402 266.152 267.426C267.454 266.449 269.082 265.31 271.035 264.008V260.102L226.113 132.172L224.16 130.219C223.184 132.172 221.882 137.706 220.254 146.82C218.952 155.935 217.324 167.816 215.371 182.465C213.743 196.788 211.79 213.389 209.512 232.27C207.559 251.15 205.443 271.332 203.164 292.816V305.512Z" fill="#484041"/>
<path d="M159.707 400.238C159.707 380.707 161.009 361.339 163.613 342.133C166.217 322.927 168.496 303.721 170.449 284.516C170.449 283.539 170.612 281.423 170.938 278.168C171.263 274.587 171.589 270.844 171.914 266.938C172.565 263.031 173.053 259.451 173.379 256.195C174.03 252.615 174.355 250.336 174.355 249.359V247.406L194.863 95.0625C194.212 88.5521 195.189 82.8555 197.793 77.9727C200.723 72.7643 205.931 70.1602 213.418 70.1602C221.556 69.1836 228.229 70.3229 233.438 73.5781C238.971 76.5078 243.529 80.4141 247.109 85.2969C250.69 90.1797 253.62 95.5508 255.898 101.41C258.177 107.27 260.618 112.641 263.223 117.523C264.85 122.081 266.803 127.452 269.082 133.637C271.686 139.822 274.616 147.634 277.871 157.074C281.452 166.514 285.521 178.07 290.078 191.742C294.961 205.414 300.495 222.016 306.68 241.547L308.633 243.5C310.911 242.198 315.143 240.082 321.328 237.152C327.839 234.223 334.512 231.13 341.348 227.875C348.509 224.62 355.182 221.527 361.367 218.598C367.552 215.668 371.947 213.715 374.551 212.738C374.876 212.087 375.69 211.599 376.992 211.273C378.62 210.622 379.759 210.134 380.41 209.809H381.387C384.642 209.809 387.083 211.111 388.711 213.715C390.339 215.993 391.152 218.272 391.152 220.551C391.152 224.132 390.339 227.224 388.711 229.828C387.083 232.432 385.13 234.874 382.852 237.152C380.898 239.105 378.62 241.059 376.016 243.012C373.737 244.965 371.947 247.081 370.645 249.359L322.305 273.773C321.003 275.401 320.352 276.703 320.352 277.68C320.352 280.284 321.654 284.353 324.258 289.887C327.188 295.421 329.466 299.815 331.094 303.07C332.07 305.023 333.698 308.604 335.977 313.812C338.255 319.021 340.697 324.392 343.301 329.926C345.905 335.46 348.346 340.831 350.625 346.039C353.229 350.922 355.02 354.34 355.996 356.293V357.758C355.996 369.477 350.137 375.336 338.418 375.336C334.837 375.336 331.094 375.01 327.188 374.359C323.281 373.383 320.352 370.941 318.398 367.035L285.684 297.211H281.289C268.919 306.651 255.736 315.928 241.738 325.043C227.741 334.158 213.418 341.97 198.77 348.48C196.491 360.199 195.026 372.081 194.375 384.125C194.049 396.169 194.212 408.214 194.863 420.258C192.259 423.839 189.655 426.605 187.051 428.559C184.447 430.186 180.866 431 176.309 431C171.751 431 168.333 430.023 166.055 428.07C163.776 425.792 162.148 423.188 161.172 420.258C160.195 417.003 159.707 413.585 159.707 410.004C159.707 406.423 159.707 403.168 159.707 400.238ZM203.164 305.512C212.93 301.605 222.37 296.397 231.484 289.887C240.924 283.376 249.876 277.354 258.34 271.82C259.316 271.169 260.456 270.518 261.758 269.867C263.385 269.216 264.85 268.402 266.152 267.426C267.454 266.449 269.082 265.31 271.035 264.008V260.102L226.113 132.172L224.16 130.219C223.184 132.172 221.882 137.706 220.254 146.82C218.952 155.935 217.324 167.816 215.371 182.465C213.743 196.788 211.79 213.389 209.512 232.27C207.559 251.15 205.443 271.332 203.164 292.816V305.512Z" fill="#383D54"/>
</g>
<defs>
<clipPath id="clip0_108_10">
<rect width="500" height="500" rx="250" fill="white"/>
</clipPath>
</defs>
</svg>
